<svg width="74" height="73" viewBox="0 0 74 73" fill="none" xmlns="http://www.w3.org/2000/svg">
<path d="M73.3237 21.3593C73.3237 17.2692 72.4148 14.997 71.5059 12.2702C70.597 9.99797 69.2336 7.7257 67.4158 5.90789C65.598 3.63562 63.3257 2.72672 61.0534 1.81781C58.7812 0.908906 56.0545 0.454453 51.9644 0C47.8743 0 46.5109 0 36.513 0C26.9695 0 25.6061 0 21.516 0C17.426 0 15.1537 0.908906 12.427 1.81781C10.1547 2.72672 7.88244 4.09008 6.06463 5.90789C4.24682 8.18015 2.88346 9.99797 1.97455 12.7247C1.06564 14.997 0.611191 17.7237 0.156738 21.3593C0.156738 25.4494 0.156738 26.8127 0.156738 36.3562C0.156738 46.3542 0.156738 47.7176 0.156738 51.3532C0.156738 55.4433 1.06564 57.7155 1.97455 60.4423C2.88346 62.7145 4.24682 64.9868 6.06463 66.8046C8.33689 69.0769 10.1547 69.9858 12.427 70.8947C14.6992 71.8036 17.426 72.258 21.516 72.7125C25.6061 72.7125 26.515 72.7125 36.513 72.7125C46.5109 72.7125 47.8743 72.7125 51.5099 72.7125C55.6 72.7125 57.8723 71.8036 60.599 70.8947C62.8713 69.9858 65.1435 68.6224 66.9613 66.8046C69.2336 64.5323 70.1425 62.7145 71.0514 60.4423C71.9603 58.17 72.4148 55.4433 72.8692 51.3532C73.3237 47.2631 72.8692 46.3542 72.8692 36.3562C72.8692 26.3583 73.3237 25.4494 73.3237 21.3593ZM36.513 55.4433C26.0606 55.4433 17.8804 46.8087 17.8804 36.8107C17.8804 26.3583 26.515 18.1781 36.513 18.1781C46.9654 18.1781 55.1456 26.8127 55.1456 36.8107C55.6 46.8087 46.9654 55.4433 36.513 55.4433ZM56.0545 21.3593C53.7822 21.3593 51.5099 19.5415 51.5099 16.8148C51.5099 14.5425 53.3277 12.2702 56.0545 12.2702C58.3267 12.2702 60.599 14.088 60.599 16.8148C60.599 19.5415 58.7812 21.3593 56.0545 21.3593Z" fill="#E8E8E8"/>
<path d="M48.7828 36.3616C48.7828 43.1784 43.3293 48.6318 36.5125 48.6318C29.6957 48.6318 24.2423 43.1784 24.2423 36.3616C24.2423 29.5448 30.1502 24.5458 36.5125 24.5458C43.3293 24.5458 48.7828 29.9992 48.7828 36.3616Z" fill="#E8E8E8"/>
</svg>
