<svg display="none">
	<symbol
		id="youtube"
		width="85"
		height="61"
		viewBox="0 0 85 61"
		xmlns="http://www.w3.org/2000/svg"
	>
		<path
			fill-rule="evenodd"
			clip-rule="evenodd"
			d="M33.9516 41.8333V17.7827C42.2939 21.8003 48.755 25.6813 56.3966 29.8656C50.094 33.4429 42.2939 37.4568 33.9516 41.8333ZM80.4436 5.82121C79.0045 3.88082 76.5519 2.37038 73.9407 1.87032C66.2658 0.378681 18.3848 0.374438 10.714 1.87032C8.62002 2.27207 6.75544 3.24314 5.1537 4.75188C-1.59527 11.1629 0.51954 45.543 2.1463 51.1121C2.83037 53.5226 3.7147 55.2611 4.82841 56.4022C6.26329 57.9109 8.22789 58.9498 10.4845 59.4156C16.8038 60.7534 49.3599 61.5014 73.8072 59.6165C76.0596 59.2148 78.0534 58.1425 79.626 56.5697C85.8661 50.1843 85.4407 13.8734 80.4436 5.82121Z"
		/>
	</symbol>
	<symbol
		id="instagram"
		width="74"
		height="73"
		viewBox="0 0 74 73"
		xmlns="http://www.w3.org/2000/svg"
	>
		<path
			d="M73.3237 21.3593C73.3237 17.2692 72.4148 14.997 71.5059 12.2702C70.597 9.99797 69.2336 7.7257 67.4158 5.90789C65.598 3.63562 63.3257 2.72672 61.0534 1.81781C58.7812 0.908906 56.0545 0.454453 51.9644 0C47.8743 0 46.5109 0 36.513 0C26.9695 0 25.6061 0 21.516 0C17.426 0 15.1537 0.908906 12.427 1.81781C10.1547 2.72672 7.88244 4.09008 6.06463 5.90789C4.24682 8.18015 2.88346 9.99797 1.97455 12.7247C1.06564 14.997 0.611191 17.7237 0.156738 21.3593C0.156738 25.4494 0.156738 26.8127 0.156738 36.3562C0.156738 46.3542 0.156738 47.7176 0.156738 51.3532C0.156738 55.4433 1.06564 57.7155 1.97455 60.4423C2.88346 62.7145 4.24682 64.9868 6.06463 66.8046C8.33689 69.0769 10.1547 69.9858 12.427 70.8947C14.6992 71.8036 17.426 72.258 21.516 72.7125C25.6061 72.7125 26.515 72.7125 36.513 72.7125C46.5109 72.7125 47.8743 72.7125 51.5099 72.7125C55.6 72.7125 57.8723 71.8036 60.599 70.8947C62.8713 69.9858 65.1435 68.6224 66.9613 66.8046C69.2336 64.5323 70.1425 62.7145 71.0514 60.4423C71.9603 58.17 72.4148 55.4433 72.8692 51.3532C73.3237 47.2631 72.8692 46.3542 72.8692 36.3562C72.8692 26.3583 73.3237 25.4494 73.3237 21.3593ZM36.513 55.4433C26.0606 55.4433 17.8804 46.8087 17.8804 36.8107C17.8804 26.3583 26.515 18.1781 36.513 18.1781C46.9654 18.1781 55.1456 26.8127 55.1456 36.8107C55.6 46.8087 46.9654 55.4433 36.513 55.4433ZM56.0545 21.3593C53.7822 21.3593 51.5099 19.5415 51.5099 16.8148C51.5099 14.5425 53.3277 12.2702 56.0545 12.2702C58.3267 12.2702 60.599 14.088 60.599 16.8148C60.599 19.5415 58.7812 21.3593 56.0545 21.3593Z"
		/>
		<path
			d="M48.7828 36.3616C48.7828 43.1784 43.3293 48.6318 36.5125 48.6318C29.6957 48.6318 24.2423 43.1784 24.2423 36.3616C24.2423 29.5448 30.1502 24.5458 36.5125 24.5458C43.3293 24.5458 48.7828 29.9992 48.7828 36.3616Z"
		/>
	</symbol>

	<symbol
		width="42"
		height="75"
		viewBox="0 0 42 75"
		id="facebook"
		xmlns="http://www.w3.org/2000/svg"
	>
		<path
			d="M38.5468 42.1875L40.6859 28.6143H27.3115V19.8062C27.3115 16.0928 29.1798 12.4731 35.1698 12.4731H41.25V0.916992C41.25 0.916992 35.7324 0 30.4569 0C19.4426 0 12.2432 6.50098 12.2432 18.2695V28.6143H0V42.1875H12.2432V75H27.3115V42.1875H38.5468Z"
		/>
	</symbol>
    <symbol
	id="twitter"
	width="76"
	height="69"
	viewBox="0 0 76 69"
	xmlns="http://www.w3.org/2000/svg"
>
	<path
		d="M68.0408 17.5722C68.0884 18.3105 68.0884 19.0489 68.0884 19.7871C68.0884 42.3046 52.6221 68.25 24.3541 68.25C15.6453 68.25 7.55525 65.455 0.75 60.6036C1.98736 60.7617 3.17696 60.8145 4.46193 60.8145C11.6477 60.8145 18.2627 58.1251 23.5451 53.5372C16.7875 53.3789 11.1244 48.4747 9.17318 41.7246C10.125 41.8827 11.0767 41.9882 12.0762 41.9882C13.4563 41.9882 14.8364 41.7772 16.1213 41.4082C9.07811 39.8261 3.79557 32.9707 3.79557 24.6914V24.4805C5.84182 25.7462 8.22147 26.5372 10.7435 26.6425C6.60325 23.5838 3.89078 18.3632 3.89078 12.4569C3.89078 9.29291 4.65207 6.39252 5.98464 3.86125C13.5513 14.1972 24.9251 20.9471 37.6789 21.6855C37.441 20.4198 37.2981 19.1016 37.2981 17.7832C37.2981 8.3964 44.151 0.75 52.6694 0.75C57.0951 0.75 61.0926 2.80664 63.9004 6.1289C67.3743 5.39066 70.7055 3.96676 73.6562 2.01563C72.5139 5.9708 70.0869 9.29307 66.8985 11.4023C69.9918 11.0333 72.9899 10.0839 75.75 8.76568C73.6564 12.1405 71.0389 15.1463 68.0408 17.5722Z"
	/>
</symbol>
</svg>
