<svg width="76" id="twitter" height="69" viewBox="0 0 76 69" fill="none" xmlns="http://www.w3.org/2000/svg">
<path d="M68.0408 17.5722C68.0884 18.3105 68.0884 19.0489 68.0884 19.7871C68.0884 42.3046 52.6221 68.25 24.3541 68.25C15.6453 68.25 7.55525 65.455 0.75 60.6036C1.98736 60.7617 3.17696 60.8145 4.46193 60.8145C11.6477 60.8145 18.2627 58.1251 23.5451 53.5372C16.7875 53.3789 11.1244 48.4747 9.17318 41.7246C10.125 41.8827 11.0767 41.9882 12.0762 41.9882C13.4563 41.9882 14.8364 41.7772 16.1213 41.4082C9.07811 39.8261 3.79557 32.9707 3.79557 24.6914V24.4805C5.84182 25.7462 8.22147 26.5372 10.7435 26.6425C6.60325 23.5838 3.89078 18.3632 3.89078 12.4569C3.89078 9.29291 4.65207 6.39252 5.98464 3.86125C13.5513 14.1972 24.9251 20.9471 37.6789 21.6855C37.441 20.4198 37.2981 19.1016 37.2981 17.7832C37.2981 8.3964 44.151 0.75 52.6694 0.75C57.0951 0.75 61.0926 2.80664 63.9004 6.1289C67.3743 5.39066 70.7055 3.96676 73.6562 2.01563C72.5139 5.9708 70.0869 9.29307 66.8985 11.4023C69.9918 11.0333 72.9899 10.0839 75.75 8.76568C73.6564 12.1405 71.0389 15.1463 68.0408 17.5722Z" fill="#E8E8E8"/>
</svg>
