<svg width="85" height="61" viewBox="0 0 85 61" fill="none" xmlns="http://www.w3.org/2000/svg">
<path fill-rule="evenodd" clip-rule="evenodd" d="M33.9516 41.8333V17.7827C42.2939 21.8003 48.755 25.6813 56.3966 29.8656C50.094 33.4429 42.2939 37.4568 33.9516 41.8333ZM80.4436 5.82121C79.0045 3.88082 76.5519 2.37038 73.9407 1.87032C66.2658 0.378681 18.3848 0.374438 10.714 1.87032C8.62002 2.27207 6.75544 3.24314 5.1537 4.75188C-1.59527 11.1629 0.51954 45.543 2.1463 51.1121C2.83037 53.5226 3.7147 55.2611 4.82841 56.4022C6.26329 57.9109 8.22789 58.9498 10.4845 59.4156C16.8038 60.7534 49.3599 61.5014 73.8072 59.6165C76.0596 59.2148 78.0534 58.1425 79.626 56.5697C85.8661 50.1843 85.4407 13.8734 80.4436 5.82121Z" fill="#E8E8E8"/>
</svg>
