<?xml version="1.0" encoding="utf-8"?><svg viewBox="0 0 85 75" xmlns="http://www.w3.org/2000/svg" xmlns:xlink="http://www.w3.org/1999/xlink"><symbol  viewBox="0 0 42 75" id="Vector" xmlns="http://www.w3.org/2000/svg"><symbol d="m38.547 42.188 2.139-13.574H27.31v-8.808c0-3.713 1.869-7.333 7.859-7.333h6.08V.917S35.732 0 30.457 0C19.443 0 12.243 6.501 12.243 18.27v10.344H0v13.573h12.243V75h15.068V42.187h11.236Z" /></symbol><svg fill="none" viewBox="0 0 76 69" id="Vector-1" xmlns="http://www.w3.org/2000/svg"><path d="M68.04 17.572c.048.739.048 1.477.048 2.215 0 22.518-15.466 48.463-43.734 48.463-8.709 0-16.799-2.795-23.604-7.646 1.237.158 2.427.21 3.712.21 7.186 0 13.8-2.689 19.083-7.277-6.758-.158-12.42-5.062-14.372-11.812.952.158 1.904.263 2.903.263 1.38 0 2.76-.21 4.045-.58-7.043-1.582-12.325-8.437-12.325-16.717v-.21c2.046 1.265 4.425 2.056 6.947 2.161-4.14-3.058-6.852-8.279-6.852-14.185 0-3.164.761-6.064 2.094-8.596 7.566 10.336 18.94 17.086 31.694 17.825a21.229 21.229 0 0 1-.38-3.903C37.298 8.396 44.15.75 52.668.75c4.426 0 8.424 2.057 11.231 5.379 3.474-.738 6.806-2.162 9.756-4.113-1.142 3.955-3.57 7.277-6.758 9.386 3.094-.369 6.092-1.318 8.852-2.636-2.094 3.374-4.711 6.38-7.71 8.806Z" fill="#E8E8E8"/></svg><svg fill="none" viewBox="0 0 74 73" id="instagram" xmlns="http://www.w3.org/2000/svg"><path d="M73.324 21.36c0-4.09-.91-6.363-1.818-9.09-.909-2.272-2.272-4.544-4.09-6.362-1.818-2.272-4.09-3.181-6.363-4.09C58.781.908 56.055.454 51.964 0H21.516c-4.09 0-6.362.909-9.089 1.818-2.272.909-4.545 2.272-6.362 4.09-1.818 2.272-3.182 4.09-4.09 6.817-.91 2.272-1.364 4.999-1.818 8.634v29.994c0 4.09.909 6.362 1.818 9.09.908 2.272 2.272 4.544 4.09 6.362 2.272 2.272 4.09 3.18 6.362 4.09 2.272.909 4.999 1.363 9.089 1.818H51.51c4.09 0 6.362-.91 9.089-1.818 2.272-.91 4.545-2.273 6.362-4.09 2.273-2.273 3.181-4.09 4.09-6.363.91-2.272 1.364-4.999 1.818-9.089.455-4.09 0-4.999 0-14.997 0-9.998.455-10.907.455-14.997ZM36.513 55.442c-10.452 0-18.633-8.634-18.633-18.632 0-10.453 8.635-18.633 18.633-18.633 10.452 0 18.633 8.635 18.633 18.633.454 9.998-8.18 18.632-18.633 18.632ZM56.054 21.36c-2.272 0-4.544-1.818-4.544-4.544 0-2.273 1.818-4.545 4.544-4.545 2.273 0 4.545 1.818 4.545 4.545 0 2.726-1.818 4.544-4.544 4.544Z" fill="#E8E8E8"/><path d="M48.783 36.362a12.22 12.22 0 0 1-12.27 12.27 12.22 12.22 0 0 1-12.27-12.27c0-6.817 5.907-11.816 12.27-11.816 6.816 0 12.27 5.453 12.27 11.816Z" fill="#E8E8E8"/></svg><svg fill="none" viewBox="0 0 85 61" id="youtube" xmlns="http://www.w3.org/2000/svg"><path fill-rule="evenodd" clip-rule="evenodd" d="M33.952 41.833v-24.05c8.342 4.017 14.803 7.898 22.445 12.083-6.303 3.577-14.103 7.59-22.445 11.967ZM80.444 5.821c-1.44-1.94-3.892-3.45-6.503-3.95-7.675-1.492-55.556-1.497-63.227 0-2.094.401-3.959 1.372-5.56 2.88-6.75 6.412-4.634 40.792-3.008 46.361.684 2.41 1.569 4.15 2.682 5.29 1.435 1.509 3.4 2.548 5.657 3.014 6.319 1.337 38.875 2.085 63.322.2a10.883 10.883 0 0 0 5.819-3.046c6.24-6.386 5.815-42.697.818-50.749Z" fill="#E8E8E8"/></svg></svg>